<?xml version="1.0" encoding="UTF-8"?>
<svg xmlns="http://www.w3.org/2000/svg" version="1.1" viewBox="0 0 255.12 113.39">
  <!-- Generator: Adobe Illustrator 29.6.1, SVG Export Plug-In . SVG Version: 2.1.1 Build 9)  -->
  <defs>
    <style>
      .st0 {
        fill: #20843b;
      }

      .st1 {
        fill: #df8ab1;
      }
    </style>
  </defs>
  <g id="_레이어_1" data-name="레이어_1">
    <g>
      <path class="st1" d="M22.22,51.23c-5.93-5.46-3.95-15.65,1.17-21.88,2.77-3.38,6.43-6.21,10.7-7.15s9.16.31,11.84,3.76c9.33-9.75,26.36-10.7,36.71-2.05.93.78,1.9,1.66,3.1,1.81.99.12,1.96-.27,2.87-.69,4.62-2.15,8.94-5.22,13.97-6.06s11.19,1.65,12.01,6.68c2.15-4.11,5.26-8.81,9.89-8.64,4.65.18,7.4,5.15,9.21,9.44,4.81-7.9,15.32-9.79,24.55-10.26,12.04-.62,24.82.05,34.97,6.55,10.16,6.5,16.33,20.54,10.53,31.12,9.89-1.5,20.8-2.61,29.16,2.88,6.62,4.35,10.28,12.13,11.78,19.91,1.17,6.09,1.01,12.99-3.01,17.71-2.85,3.35-7.19,5.04-11.47,6.07-9.07,2.18-19.55,1.57-26.46-4.69-1.2-1.08-2.34-2.36-3.9-2.77-1.18-.31-2.44-.07-3.64.17-8.24,1.65-16.48,3.29-24.72,4.94-3.32.66-7.2,1.19-9.73-1.08-1.36-1.22-2.14-3.14-3.82-3.87-2.82-1.22-5.55,1.64-7.84,3.68-7.43,6.61-20.36,5.48-26.53-2.31-1.16-1.46-2.3-3.23-4.14-3.54-3.69-.61-5.02,4.56-7.04,7.71-2.39,3.7-7.41,5.15-11.68,4.07s-7.75-4.32-9.99-8.12c-.52-.89-1.05-1.87-1.98-2.3-1.17-.54-2.54-.02-3.74.47-18.85,7.67-40.84,7.27-59.4-1.09-2.5-1.13-5.02-2.45-6.73-4.58-2.07-2.57-2.72-5.98-3.15-9.26-.62-4.72-.91-9.49-.88-14.25.03-4.93,1.51-11.18,6.39-11.96"/>
      <path class="st1" d="M23.99,49.47c-5.05-4.8-2.82-13.15.95-18.08,2.43-3.18,5.84-5.9,9.81-6.77,3.47-.76,7.16.34,9.41,3.11.84,1.04,2.67.89,3.54,0,6.27-6.46,16.07-8.67,24.67-6.34,2.16.58,4.19,1.44,6.1,2.6,2.18,1.33,4.04,3.66,6.61,4.15,3.01.57,6.05-1.53,8.59-2.88s5.1-2.77,7.92-3.51c3.97-1.05,9.73,0,10.59,4.58.4,2.11,3.61,2.43,4.57.6,1.51-2.86,4.02-7.78,7.9-7.39,3.64.37,5.63,5.26,6.88,8.19.78,1.82,3.43,1.43,4.32,0,3-4.8,8.45-6.93,13.77-8.02,6.25-1.28,12.87-1.37,19.22-1.1,6.84.29,13.86,1.42,20.02,4.55,5.33,2.7,9.58,6.81,12.26,12.17s3.36,11.88.46,17.28c-1.11,2.07.71,3.99,2.82,3.67,11.07-1.67,24.31-2.8,32,7.1,3.36,4.33,5.19,9.74,6.06,15.09s.5,11.18-3.39,15.01c-3.92,3.86-10.38,5.15-15.68,5.52s-10.82-.34-15.41-3.16c-2.4-1.47-4.14-3.97-6.79-5.01-1.7-.67-3.45-.49-5.21-.17s-3.53.7-5.3,1.06c-6.99,1.4-13.97,2.96-21,4.18-2.33.41-5.06.67-6.77-1.27-.8-.91-1.43-1.95-2.36-2.73-1.31-1.1-2.92-1.68-4.64-1.49-3.12.33-5.36,2.7-7.6,4.65-1.64,1.43-3.61,2.42-5.7,2.99-4.25,1.17-9,.66-12.89-1.53-2.07-1.17-3.61-2.75-5.07-4.61-1.78-2.26-4.2-4.02-7.23-3.3-5.07,1.2-5.06,7.62-8.68,10.36-4.13,3.12-9.64,1.4-13.03-1.92-.85-.83-1.6-1.73-2.26-2.72-.89-1.34-1.56-2.84-2.92-3.8-3-2.11-6.47.02-9.44,1.07-5.87,2.07-12,3.4-18.2,3.91-12.47,1.02-25.44-.96-36.81-6.31-2.63-1.24-5.09-2.7-6.39-5.42s-1.54-5.93-1.84-8.86c-.37-3.6-.55-7.21-.54-10.82,0-2.33.19-4.6,1.06-6.79.71-1.8,1.68-2.92,3.5-3.26,1.33-.25,2.08-1.85,1.75-3.08-.38-1.39-1.74-2-3.08-1.75-5.75,1.08-7.72,7.4-8.14,12.47-.28,3.4-.05,6.88.2,10.27.27,3.66.54,7.49,1.53,11.04.93,3.36,2.72,6.14,5.52,8.23,2.62,1.96,5.81,3.18,8.84,4.36,6.36,2.47,13.04,3.99,19.82,4.72s13.34.52,19.96-.43c3.4-.49,6.77-1.21,10.07-2.16,1.51-.44,3.01-.92,4.5-1.45.67-.24,1.35-.49,2.01-.76s1.91-1.04,2.65-.92c.7.11,1.28,1.69,1.65,2.25.88,1.33,1.9,2.61,3.04,3.73,2.21,2.16,4.98,3.9,8.01,4.62,5.83,1.39,12.01-.97,14.94-6.28.56-1.01,1.04-2.05,1.6-3.06.29-.52.58-1.06.94-1.54-.2.26.35-.4.31-.36.02-.02.58-.55.27-.29.04-.03.72-.37.28-.19.44-.18-.17-.13.33-.06.31.04.5.12.85.41,1.07.87,1.78,2.17,2.7,3.19,3.58,3.98,8.82,6.13,14.09,6.55s10.94-1.24,15.09-4.77c1.21-1.03,3.89-4.4,5.65-3.18.92.64,1.49,1.85,2.24,2.67,1.1,1.2,2.57,2.06,4.14,2.48,3.27.88,6.72.08,9.96-.56,3.72-.74,7.43-1.48,11.15-2.23s7.43-1.48,11.15-2.23c1.41-.28,2.89-.79,4.17.09s2.33,2.1,3.56,3.04c4.76,3.62,10.8,5.12,16.7,5.2s12.87-1.11,18.28-4.11c12.17-6.74,10.34-22.98,5.31-33.77-2.61-5.59-6.9-10.54-12.55-13.18s-12.3-3.18-18.63-2.73c-3.24.23-6.45.68-9.66,1.16l2.82,3.67c6.55-12.23-.38-27.35-11.29-34.44-6.6-4.29-14.42-6.16-22.17-6.85-7.27-.64-14.8-.47-22.02.66s-14.79,4.13-18.9,10.7h4.32c-2.08-4.87-5.34-10.29-11.2-10.66s-9.79,5.26-12.22,9.86l4.57.6c-1.02-5.39-6.46-8.27-11.52-8.64-6.19-.45-11.69,3.34-16.98,5.98-1.18.59-2.14,1.31-3.31.46-1.09-.79-2.07-1.71-3.19-2.47-2.14-1.45-4.54-2.56-6.99-3.36-4.98-1.63-10.36-1.83-15.5-.88-5.77,1.07-11.24,3.9-15.34,8.12h3.54c-5.27-6.52-15.05-5.71-21.27-1.14s-10.36,11.58-10.35,19.21c0,4.02,1.43,7.94,4.37,10.73,2.33,2.21,5.88-1.32,3.54-3.54h0Z"/>
    </g>
  </g>
  <g id="_레이어_2" data-name="레이어_2">
    <g>
      <path class="st0" d="M35.2,38.07c-.03-1.1-.56-2.63,1.5-2.63h9.22c1.21,0,1.37.54,1.37,1.39v1.12c.03.91-.46,1.29-1.45,1.26-1.34-.03-3.7-.03-6-.03l-.03,3.75c1.74,0,4.45,0,5.09-.03.59-.03,1.12.27,1.12,1.04v1.21c0,.86-.27.99-1.04,1.02-.75,0-3.43-.03-5.2,0,0,1.42,0,2.6.03,3.75,1.88,0,5.28-.03,6.11-.08.96-.05,1.39.38,1.39,1.29v1.47c0,.86-.19,1.04-1.39,1.04h-9.19c-1.55,0-1.58-1.31-1.55-2.33.08-2.57.03-12.51.03-13.26Z"/>
      <path class="st0" d="M51.09,37.78c0-1.1-.35-2.33,1.58-2.33h2.36l7.23,9.67h.21c-.05-1.21-.19-8.2-.19-8.52-.03-.56.03-1.15,1.55-1.15h1.63c1.55,0,1.55,1.29,1.53,2.3-.03,1.13-.27,11.68-.13,13.29.05,1.1.59,2.63-1.47,2.63h-1.63c-1.34,0-1.53-1.13-1.58-1.98,0-1.04-5.2-7.48-6.56-9.57h-.24c0,1.79.29,8.31.35,8.92.05,1.1.59,2.63-1.47,2.63h-1.71c-1.55,0-1.58-1.31-1.55-2.33.11-2.57.13-12.81.11-13.56Z"/>
      <path class="st0" d="M69.72,50.61l.7-1.37c.4-.88,1.02-.56,1.45-.29.38.32,1.23,1.07,2.41,1.07,1.37,0,2.04-.88,2.09-2.73.13-4.85-.03-9.35-.03-10.1-.03-1.1-.11-1.74,1.45-1.74h1.69c1.58,0,1.61,1.29,1.58,2.3-.03,1.13-.05,7.5-.11,9.94-.08,3.97-2.3,6.24-6.19,6.24-2.44,0-4.18-1.23-4.8-1.82-.64-.59-.56-.96-.24-1.5Z"/>
      <path class="st0" d="M92.44,35.18c5.41,0,8.41,4.07,8.36,9.38-.08,5.31-2.84,9.38-8.25,9.38s-8.44-4.05-8.39-9.38c.05-5.28,2.65-9.38,8.28-9.38ZM96.08,44.53c0-2.95-.83-5.55-3.62-5.55s-3.7,2.6-3.67,5.55c.03,2.89.8,5.6,3.67,5.6s3.64-2.73,3.62-5.6Z"/>
      <path class="st0" d="M107.32,46.41c-.86-1.77-4.64-8.49-5.06-9.27-.27-.46-.7-1.69.83-1.69h1.98c1.15,0,1.45.75,1.66,1.37.56,1.34,2.28,4.74,2.87,5.98h.19c.7-1.45,2.6-5.17,2.92-6.14.27-.78.62-1.21,2.06-1.21h1.98c.83,0,1.26.94.86,1.66-.7,1.13-4.8,8.04-5.68,9.4.03.8-.03,3.64.05,4.53.08,1.1.62,2.63-1.45,2.63h-1.69c-1.58,0-1.63-1.31-1.58-2.33.03-1.31.05-4.18.05-4.93Z"/>
      <path class="st0" d="M126.88,50.13c.08-3.3.08-9.27.08-11.2,0-.8-.11-1.58-.05-2.44.08-.62.35-1.04,1.39-1.04h1.8c1.23,0,1.42.86,1.5,1.66.03.29.03.8,0,1.45-.03,2.28-.16,8.63-.11,11.36,1.79.03,4.98,0,5.79-.08.96-.11,1.39.48,1.39,1.37,0,.46,0,.88-.03,1.34.03.86-.19,1.13-1.37,1.13h-8.84c-1.23,0-1.47-.86-1.53-1.69-.05-.4-.03-1.07-.03-1.85Z"/>
      <path class="st0" d="M142.29,38.07c-.03-1.1-.59-2.63,1.47-2.63h1.71c1.55,0,1.58,1.29,1.55,2.3-.08,2.22-.19,11.68-.08,13.29.08,1.1.62,2.63-1.45,2.63h-1.69c-1.58,0-1.61-1.31-1.58-2.33.11-2.57.05-11.31.05-13.26Z"/>
      <path class="st0" d="M151.54,50.42c.05-3.78.08-11.63.08-12.35,0-1.39-.43-2.63,1.55-2.63h8.68c1.07,0,1.39.54,1.39,1.37v1.29c0,.94-.54,1.21-1.53,1.21-1.45-.03-3.94-.03-5.47-.03l-.08,4.45c1.26,0,3.91-.03,5.06-.03,1.02,0,1.21.35,1.21,1.21v1.1c0,.88-.24,1.13-1.07,1.07-.78-.08-3.67-.05-5.25-.05,0,2.46.16,4.07.13,4.9,0,1.21-.54,1.74-1.63,1.74h-1.53c-1.31,0-1.53-.78-1.55-1.85-.03-.32,0-.8,0-1.39Z"/>
      <path class="st0" d="M166.76,38.07c-.03-1.1-.56-2.63,1.5-2.63h9.22c1.21,0,1.37.54,1.37,1.39v1.12c.03.91-.46,1.29-1.45,1.26-1.34-.03-3.7-.03-6-.03l-.03,3.75c1.74,0,4.45,0,5.09-.03.59-.03,1.13.27,1.13,1.04v1.21c0,.86-.27.99-1.04,1.02-.75,0-3.43-.03-5.2,0,0,1.42,0,2.6.03,3.75,1.88,0,5.28-.03,6.11-.08.96-.05,1.39.38,1.39,1.29v1.47c0,.86-.19,1.04-1.39,1.04h-9.19c-1.55,0-1.58-1.31-1.55-2.33.08-2.57.03-12.51.03-13.26Z"/>
      <path class="st0" d="M184.83,48.55c1.47,0,2.76.27,2.76,2.71s-1.21,2.68-2.73,2.68-2.79-.27-2.76-2.68c-.05-2.44,1.15-2.71,2.73-2.71Z"/>
      <path class="st0" d="M35.2,70.23c-.03-1.1-.56-2.63,1.5-2.63h9.22c1.21,0,1.37.54,1.37,1.39v1.13c.03.91-.46,1.29-1.45,1.26-1.34-.03-3.7-.03-6-.03l-.03,3.75c1.74,0,4.45,0,5.09-.03.59-.03,1.12.27,1.12,1.04v1.21c0,.86-.27.99-1.04,1.02-.75,0-3.43-.03-5.2,0,0,1.42,0,2.6.03,3.75,1.88,0,5.28-.03,6.11-.08.96-.05,1.39.38,1.39,1.29v1.47c0,.86-.19,1.04-1.39,1.04h-9.19c-1.55,0-1.58-1.31-1.55-2.33.08-2.57.03-12.51.03-13.26Z"/>
      <path class="st0" d="M49.96,83.82c.75-2.65,4.07-13.37,4.31-14.36.27-1.1.46-1.85,2.2-1.85h3.32c1.42,0,1.85.75,2.12,1.77.24.99,3.54,12.65,3.94,14.33.24,1.13.38,2.12-.99,2.12h-1.47c-1.58,0-1.69-1.15-1.85-1.71-.13-.35-.35-1.21-.72-2.2h-5.6c-.35,1.07-.62,1.9-.67,2.14-.13,1.13-.35,1.77-1.63,1.77h-2.06c-1.02,0-1.15-1.04-.88-2.01ZM60.17,78.81c-.86-3.29-1.85-7.07-2.09-8.17h-.16c-.27,1.29-1.26,5.01-2.12,8.17h4.37Z"/>
      <path class="st0" d="M71.22,71.36c-.8,0-3.27,0-3.72.05-.96.08-1.26-.38-1.26-1.29l.03-1.47c0-.86.19-1.05,1.37-1.05,0,0,10.29.08,12.19-.05.99-.05,1.26.51,1.23,1.39l-.03,1.39c-.03.86-.19,1.04-1.37,1.04h-3.78c-.13,3.7-.11,11.17-.11,11.82.03,1.1.62,2.63-1.45,2.63h-1.71c-1.55,0-1.61-1.29-1.58-2.3.05-.96.21-9.11.19-12.16Z"/>
      <path class="st0" d="M90.43,69.94c-.03-1.1-.43-2.33,1.66-2.33h5.14c4.77,0,6.7,2.04,6.7,4.8-.03,3.11-3.11,3.7-3.11,3.7v.16s3.94.43,3.94,4.31c.03,3.03-2.17,5.25-7.02,5.25h-5.87c-1.55,0-1.58-1.31-1.55-2.33.11-2.57.11-12.81.11-13.56ZM97,82.61c2.01,0,3.22-.75,3.22-2.52,0-1.53-1.07-2.44-3.13-2.44h-2.22v4.96h2.14ZM96.78,75.03c1.98,0,2.97-.72,2.97-2.2,0-1.34-1.02-2.09-2.92-2.09h-1.93l-.03,4.29h1.9Z"/>
      <path class="st0" d="M107.88,70.02c-.03-1.1-.48-2.41,1.45-2.41h1.71c1.55,0,1.61,1.1,1.58,2.12-.05,1.1-.13,5.01-.11,7.72.05,3.16.78,4.85,3.08,4.85s3.08-1.61,3.08-4.88c0-2.97,0-6.51-.03-7.4,0-1.1-.48-2.41,1.45-2.41h1.71c1.55,0,1.63,1.1,1.58,2.12-.03,1.1-.11,6.43-.16,7.69-.24,5.25-1.66,8.68-7.56,8.68-6.22,0-7.61-3.35-7.74-8.65-.08-3.56-.03-6.64-.05-7.42Z"/>
      <path class="st0" d="M130.77,71.36c-.8,0-3.27,0-3.72.05-.96.08-1.26-.38-1.26-1.29l.03-1.47c0-.86.19-1.05,1.37-1.05,0,0,10.29.08,12.19-.05.99-.05,1.26.51,1.23,1.39l-.03,1.39c-.03.86-.19,1.04-1.37,1.04h-3.78c-.13,3.7-.11,11.17-.11,11.82.03,1.1.62,2.63-1.45,2.63h-1.71c-1.55,0-1.61-1.29-1.58-2.3.05-.96.21-9.11.19-12.16Z"/>
      <path class="st0" d="M146.79,71.36c-.8,0-3.27,0-3.72.05-.96.08-1.26-.38-1.26-1.29l.03-1.47c0-.86.19-1.05,1.37-1.05,0,0,10.29.08,12.19-.05.99-.05,1.26.51,1.23,1.39l-.03,1.39c-.03.86-.19,1.04-1.37,1.04h-3.78c-.13,3.7-.11,11.17-.11,11.82.03,1.1.62,2.63-1.45,2.63h-1.71c-1.55,0-1.61-1.29-1.58-2.3.05-.96.21-9.11.19-12.16Z"/>
      <path class="st0" d="M159.45,70.23c-.03-1.1-.56-2.63,1.5-2.63h9.22c1.21,0,1.37.54,1.37,1.39v1.13c.03.91-.46,1.29-1.45,1.26-1.34-.03-3.7-.03-6-.03l-.03,3.75c1.74,0,4.45,0,5.09-.03.59-.03,1.13.27,1.13,1.04v1.21c0,.86-.27.99-1.04,1.02-.75,0-3.43-.03-5.2,0,0,1.42,0,2.6.03,3.75,1.88,0,5.28-.03,6.11-.08.96-.05,1.39.38,1.39,1.29v1.47c0,.86-.19,1.04-1.39,1.04h-9.19c-1.55,0-1.58-1.31-1.55-2.33.08-2.57.03-12.51.03-13.26Z"/>
      <path class="st0" d="M175.37,70.21c0-1.1-.43-2.6,1.61-2.6h5.55c4.66,0,7.13,2.57,7.05,6.24-.05,2.49-1.47,4.21-3.38,5.09l2.14,2.89c.48.78.99.83,1.74.83.59,2.6-.51,3.43-2.36,3.43-1.69,0-2.41-.88-3.11-2.17l-2.52-4.18h-2.17c-.03.64-.08,3.35,0,4.23.11,1.39-.27,1.85-1.42,1.85h-1.69c-1.55,0-1.58-1.31-1.55-2.33.08-2.57.13-12.51.11-13.29ZM182.01,76.8c1.96,0,3.14-.99,3.14-2.97,0-1.42-.8-2.95-3.08-2.95h-2.25c-.05,1.39-.03,4.9-.03,5.92h2.22Z"/>
      <path class="st0" d="M193.59,70.23c-.03-1.1-.56-2.63,1.5-2.63h9.22c1.21,0,1.37.54,1.37,1.39v1.13c.03.91-.46,1.29-1.45,1.26-1.34-.03-3.7-.03-6-.03l-.03,3.75c1.74,0,4.45,0,5.09-.03.59-.03,1.13.27,1.13,1.04v1.21c0,.86-.27.99-1.04,1.02-.75,0-3.43-.03-5.2,0,0,1.42,0,2.6.03,3.75,1.88,0,5.28-.03,6.11-.08.96-.05,1.39.38,1.39,1.29v1.47c0,.86-.19,1.04-1.39,1.04h-9.19c-1.55,0-1.58-1.31-1.55-2.33.08-2.57.03-12.51.03-13.26Z"/>
      <path class="st0" d="M209.51,70.23c-.03-1.1-.56-2.63,1.5-2.63h4.93c6.43,0,9.24,3.81,9.14,9.11-.11,5.28-2.63,9.11-9.06,9.11h-5.04c-1.55,0-1.58-1.31-1.58-2.33.11-2.57.11-12.51.11-13.26ZM215.86,82.29c3.99,0,4.58-2.79,4.58-5.63-.03-2.89-.83-5.52-4.58-5.52h-1.74c-.05,2.57-.05,8.12-.05,11.15h1.8Z"/>
      <path class="st0" d="M230.2,80.71c1.47,0,2.76.27,2.76,2.71s-1.21,2.68-2.73,2.68-2.79-.27-2.76-2.68c-.05-2.44,1.15-2.71,2.73-2.71Z"/>
    </g>
  </g>
</svg>