<?xml version="1.0" encoding="UTF-8"?>
<svg id="_레이어_1" data-name="레이어_1" xmlns="http://www.w3.org/2000/svg" version="1.1" viewBox="0 0 283.46 283.46">
  <!-- Generator: Adobe Illustrator 29.6.1, SVG Export Plug-In . SVG Version: 2.1.1 Build 9)  -->
  <defs>
    <style>
      .st0 {
        fill: #f6f4b0;
      }

      .st1 {
        fill: #231815;
      }

      .st2 {
        fill: #e9e688;
      }
    </style>
  </defs>
  <g>
    <path class="st2" d="M66.74,98.43c6.96-7.31,14.3-14.26,21.98-20.82,1.27-1.09,2.61-2.2,4.24-2.61,1.44-.37,2.96-.16,4.43.05,27.23,3.99,54.28,9.27,81.01,15.82"/>
    <path class="st1" d="M67.63,99.31c5.34-5.59,10.88-10.98,16.64-16.14,1.41-1.26,2.83-2.51,4.26-3.75s2.9-2.74,4.76-3.22c1.69-.43,3.53.02,5.22.27,2.09.31,4.19.63,6.28.95,15.77,2.45,31.47,5.34,47.08,8.66,8.76,1.86,17.49,3.86,26.19,5.99,1.56.38,2.23-2.03.66-2.41-15.98-3.91-32.06-7.38-48.24-10.38-8.09-1.5-16.19-2.89-24.32-4.16-2.01-.31-4.02-.62-6.04-.92-1.85-.28-3.77-.7-5.64-.65-3.78.1-6.49,3.01-9.16,5.34-6.77,5.92-13.26,12.15-19.47,18.65-1.11,1.16.65,2.93,1.77,1.77h0Z"/>
  </g>
  <g>
    <path class="st2" d="M67.57,98.75c26,4.91,51.71,11.32,76.97,19.21"/>
    <path class="st1" d="M67.24,99.96c20.29,3.84,40.41,8.58,60.27,14.23,5.59,1.59,11.15,3.25,16.7,4.98,1.54.48,2.2-1.93.66-2.41-19.72-6.15-39.7-11.41-59.89-15.76-5.68-1.22-11.37-2.37-17.08-3.45-1.57-.3-2.25,2.11-.66,2.41h0Z"/>
  </g>
  <g>
    <path class="st2" d="M145.12,117.29c10.22-7.84,20.54-15.54,30.95-23.12.44-.32,1.02-.65,1.49-.38.45.26.47.89.44,1.41-.75,12.99-.21,26.06,1.61,38.94"/>
    <path class="st1" d="M145.75,118.37c8.21-6.3,16.49-12.51,24.83-18.64.99-.72,1.97-1.45,2.96-2.17.53-.38,1.05-.77,1.58-1.15s1.3-.77,1.72-1.25c.16-.19-.01-.4-.08-.11-.04.2-.02.45-.03.65-.03.65-.07,1.3-.1,1.95-.06,1.3-.1,2.6-.14,3.9-.13,5.2-.06,10.41.22,15.61.31,5.8.89,11.58,1.69,17.33.22,1.59,2.63.91,2.41-.66-1.56-11.17-2.15-22.47-1.78-33.74.04-1.3.1-2.6.17-3.9.05-1.04.22-2.22-.53-3.07-1.68-1.89-4.24.72-5.6,1.71-4.48,3.27-8.93,6.56-13.37,9.88-5.09,3.8-10.16,7.64-15.21,11.51-1.26.97-.02,3.14,1.26,2.16h0Z"/>
  </g>
  <g>
    <path class="st2" d="M65.29,102.44c-.72,10.88,1.73,21.69,4.16,32.32.24,1.06.51,2.16,1.2,3.01.8.97,2.03,1.44,3.21,1.87,23.19,8.46,46.64,16.2,70.31,23.2"/>
    <path class="st1" d="M64.04,102.44c-.47,7.6.54,15.17,2.01,22.61.74,3.72,1.37,7.62,2.5,11.24,1.02,3.3,3.86,4.15,6.82,5.23,14.44,5.24,28.99,10.2,43.63,14.89,8.25,2.64,16.53,5.19,24.84,7.65,1.55.46,2.21-1.95.66-2.41-14.11-4.18-28.14-8.61-42.08-13.31-6.97-2.35-13.92-4.76-20.85-7.23-1.69-.61-3.39-1.21-5.08-1.83-1.47-.53-3.59-.95-4.72-2.11-1.06-1.09-1.19-2.99-1.51-4.4-.42-1.83-.83-3.66-1.22-5.5-1.74-8.16-3.04-16.45-2.52-24.83.1-1.61-2.4-1.6-2.5,0h0Z"/>
  </g>
  <path class="st1" d="M150.86,170.58c7.03-8.42,14.06-16.85,21.09-25.27,1.75-2.1,3.49-4.2,5.25-6.29,1.65-1.96,3.27-3.3,5.85-3.74,2.41-.41,4.95-.39,7.38-.43,2.73-.05,5.47,0,8.19.15,5.99.32,11.94,1.11,17.82,2.34l-.3-2.28c-3.93,2.77-6.88,6.52-9.57,10.45-3.11,4.54-6.11,9.16-9.16,13.75-1.58,2.38-3.14,4.77-4.74,7.13-.64.95-1.35,1.9-2.48,2.29-1.33.46-2.86.48-4.25.63-5.73.61-11.49,1.02-17.26,1.22-6.42.22-12.85.18-19.27-.1-1.61-.07-1.61,2.43,0,2.5,11.69.52,23.41.21,35.05-.97,2.48-.25,5.64-.13,7.81-1.53,2.03-1.31,3.26-3.83,4.55-5.78,3.24-4.88,6.49-9.76,9.73-14.64s6.2-9.52,10.84-12.79c.81-.57.84-2.05-.3-2.28-10.65-2.24-21.87-3.28-32.74-2.31-2.3.21-4.57.68-6.44,2.11-2.09,1.6-3.68,3.94-5.35,5.95-3.68,4.4-7.35,8.81-11.03,13.21-4.15,4.98-8.31,9.96-12.46,14.93-1.02,1.23.74,3,1.77,1.77h0Z"/>
  <path class="st1" d="M214.85,135.37c-.06,5.98-.15,12.23-3.15,17.6-1.55,2.77-3.59,5.23-5.55,7.7s-4,4.95-6.05,7.38-4.13,4.84-6.25,7.22c-.86.97-1.73,2-2.84,2.69-1.42.89-3.07.84-4.69.72-6.64-.52-13.27-1.2-19.9-1.81-3.61-.33-7.23-.66-10.84-.99-1.36-.12-6.31-.49-5.71-2.85.4-1.56-2.01-2.22-2.41-.66-.63,2.45,1.14,4.17,3.25,5.05,2.79,1.17,6.1,1.07,9.06,1.34,7.47.68,14.95,1.36,22.42,2.04,3.16.29,6.79,1.1,9.74-.49,1.27-.68,2.3-1.75,3.26-2.8,1.26-1.4,2.5-2.82,3.73-4.24,4.57-5.29,9.24-10.65,13.25-16.38,2.13-3.05,3.63-6.38,4.34-10.04s.8-7.64.84-11.48c.02-1.61-2.48-1.61-2.5,0h0Z"/>
  <path class="st1" d="M190.14,169.62c-.94,3.38-1.55,6.84-1.86,10.34-.06.67.62,1.25,1.25,1.25.73,0,1.19-.57,1.25-1.25.29-3.27.89-6.51,1.77-9.67.43-1.55-1.98-2.21-2.41-.66h0Z"/>
  <path class="st1" d="M192.63,180.46c1.05.42,2.09.84,3.14,1.27.89.36,2.03,1.04,3.03.94,1.76-.17,2.18-2.06,2.72-3.42,1.56-3.88,3.6-7.57,6-10.99,4.05-5.77,9.43-11.36,9.55-18.85.03-1.61-2.47-1.61-2.5,0-.1,6.56-4.98,11.74-8.61,16.75-2.1,2.9-3.94,5.98-5.46,9.22-.37.78-.71,1.57-1.04,2.36-.23.54-.49,1.9-.91,2.27-.24.21-.6-.09-.98-.25l-1.34-.54-2.91-1.18c-1.49-.6-2.14,1.81-.66,2.41h0Z"/>
  <path class="st1" d="M214.82,148.61c-.09,4.03,1.79,7.77,1.03,11.83-.71,3.82-2.6,7.38-4.4,10.78-3.61,6.79-7.99,13.14-13.06,18.92l2.09.55c-.57-3.28-.82-6.59-.79-9.92.02-1.61-2.48-1.61-2.5,0-.04,3.55.27,7.09.88,10.59.16.91,1.5,1.22,2.09.55,5.3-6.05,9.91-12.7,13.65-19.82,1.85-3.52,3.8-7.25,4.49-11.21.34-1.97.31-3.89-.02-5.85-.37-2.15-1.01-4.22-.96-6.41.04-1.61-2.46-1.61-2.5,0h0Z"/>
  <path class="st1" d="M199.54,190.04c-11.08-5.02-22.46-9.33-34.09-12.88-1.54-.47-2.2,1.94-.66,2.41,11.42,3.49,22.62,7.7,33.5,12.63,1.45.66,2.73-1.49,1.26-2.16h0Z"/>
  <g>
    <path class="st2" d="M144.61,119.28c.68,14.91,1.37,29.82,2.05,44.73,5.26-2.81,10.34-5.95,15.21-9.4"/>
    <path class="st1" d="M143.36,119.28c.68,14.91,1.37,29.82,2.05,44.73.04.96,1.02,1.54,1.88,1.08,5.26-2.82,10.34-5.96,15.21-9.4,1.3-.92.06-3.09-1.26-2.16-4.88,3.44-9.95,6.58-15.21,9.4l1.88,1.08c-.68-14.91-1.37-29.82-2.05-44.73-.07-1.6-2.57-1.61-2.5,0h0Z"/>
  </g>
  <path class="st1" d="M62.69,119.89c-11.11-.43-22.06,3.27-30.71,10.23-.6.48-.43,1.64.25,1.96,8.47,4.03,17.84,8.55,23.24,16.57,1.37,2.04,2.25,4.19,3.08,6.48s2.27,3.83,4.69,4.35,5.09.32,7.59.46c2.9.16,5.8.45,8.68.88,22.74,3.38,43.53,14.23,62.9,26.11,5.53,3.4,11,6.9,16.43,10.45s10.51,7.1,14.36,12.12c.4.52,1.09.85,1.71.45,11.51-7.46,23.49-14.18,35.88-20.08,2.7-1.28,5.65-2.4,7.77-4.59s3.42-5.32,4.71-8.11c2.81-6.08,5.23-12.37,8.72-18.12,2.91-4.8,6.66-9.28,11.5-12.22,1.23-.75,2.53-1.39,3.88-1.9,1.16-.44,2.41-.84,3.33-1.73,2.2-2.14.89-5.96.52-8.58-.22-1.6-.45-3.19-.67-4.79s-.44-3.25-1.27-4.67c-1.27-2.16-3.65-3.23-6.01-3.7-2.98-.6-6.11-.69-9.13-.83-3.36-.16-6.72-.21-10.09-.22-14.82-.07-30.02.58-44.2-4.49-1.52-.54-2.17,1.87-.66,2.41,12.02,4.3,24.89,4.58,37.51,4.58,6.42,0,12.85-.06,19.27.32,2.74.16,5.71.18,8.33,1.09,1.07.37,2.08.97,2.72,1.92.9,1.34.98,3.19,1.2,4.74s.45,3.19.67,4.79c.2,1.44.82,3.38.5,4.83-.27,1.25-1.82,1.6-2.86,1.99-1.25.47-2.46,1.03-3.63,1.69-4.73,2.67-8.54,6.74-11.58,11.2-3.53,5.16-5.98,10.95-8.5,16.65-1.28,2.89-2.53,5.82-4.06,8.59-.69,1.24-1.48,2.43-2.56,3.37-1.17,1.02-2.6,1.71-4,2.37-13.3,6.31-26.19,13.32-38.55,21.33l1.71.45c-3.39-4.42-7.7-7.89-12.27-11.03s-9.66-6.34-14.54-9.41c-9.82-6.18-19.85-12.09-30.33-17.09s-21.24-9.04-32.53-11.33c-5.6-1.14-11.3-1.85-17.02-2.03-2.07-.07-5.31.4-6.86-1.33-.81-.89-1.03-2.21-1.44-3.31-.43-1.16-.95-2.29-1.54-3.37-5.27-9.61-15.83-14.9-25.32-19.42l.25,1.96c8.13-6.54,18.54-9.9,28.94-9.5,1.61.06,1.61-2.44,0-2.5h0Z"/>
  <g>
    <path class="st2" d="M68.17,101.66c.59,1.72,1.18,3.44,1.77,5.17"/>
    <path class="st2" d="M66.92,101.73c.59,1.72,1.18,3.44,1.77,5.17.05.14.26.18.38.2.28.06.6.06.89.04.12,0,1.32-.11,1.23-.38-.59-1.72-1.18-3.44-1.77-5.17-.05-.14-.26-.18-.38-.2-.28-.06-.6-.06-.89-.04-.12,0-1.32.11-1.23.38h0Z"/>
  </g>
  <path class="st2" d="M69.51,101.99c16.74,3.6,33.48,7.2,50.21,10.8,5.35,1.15,10.71,2.3,15.87,4.12,1.03.36,2.12.81,2.69,1.74.35.58.45,1.28.55,1.95,1.66,12.16,3.32,24.32,4.98,36.48.13.92.22,1.95-.36,2.68-.86,1.08-2.56.76-3.86.31-7.68-2.64-15.06-6.13-21.97-10.39-18.79-11.6-33.59-28.52-48.08-45.18"/>
  <path class="st2" d="M74.77,96.52c21.34,5.49,42.75,10.69,64.23,15.6,2.49.57,5.3,1.09,7.45-.29,1.53-.98,2.37-2.72,3.46-4.18,5.84-7.88,18.82-8.01,23.92-16.39-4.84.15-9.69.3-14.53.45-8.9.28-17.8.56-26.7.83-17.26.54-34.65,1.09-51.5,4.92"/>
  <path class="st2" d="M148.41,117.72c-.99,6.58.18,13.3,1.82,19.75,1.33,5.24,3.44,10.95,8.3,13.31,1.06.51,2.37.82,3.39.24.54-.31.92-.82,1.29-1.32,1.91-2.61,3.83-5.22,5.74-7.84,2.14-2.92,4.29-5.86,5.87-9.11.41-.84.78-1.79.49-2.68-.19-.59-.65-1.06-1.1-1.49-6.84-6.47-16.12-10.28-25.53-10.49"/>
  <path class="st2" d="M180.38,138.07c-1.94.23-3.34,1.89-4.53,3.44-6.96,9-13.92,18-20.88,27,7.71-.05,15.43-.1,23.12-.78,3.87-.34,7.87-.89,11.14-2.99,2.27-1.46,4.03-3.57,5.69-5.7,5.01-6.42,9.44-13.26,13.87-20.09.13-.2.27-.42.28-.66.05-.68-.78-1.03-1.44-1.16-8.57-1.77-17.48-1.85-26.08-.25"/>
  <path class="st2" d="M212.12,143.81c-1.78,3.02-3.56,6.05-5.34,9.07-.44.75-.88,1.5-1.32,2.25-1.57,2.67-3.15,5.36-5.08,7.79-2.62,3.32-5.88,6.19-7.81,9.94,5.71-8.4,15.2-14.29,18.67-23.83.61-1.69,1.02-3.51.68-5.28"/>
  <path class="st0" d="M153.07,174.12c8.94.37,17.87.75,26.81,1.12,2.46.1,5.13.15,7.14-1.28.22.88-.56,1.77-1.43,2.01s-1.81.02-2.7-.17c-4.9-1.06-9.95-1.4-14.94-.98"/>
  <path class="st0" d="M191.62,181.24c2.23.32,3.82,2.92,3.08,5.05-3.84-1.17-7.61-2.57-11.3-4.17,2.28-.2,4.58-.23,6.86-.08,1.24.08,2.92.91,2.4,2.04-1.02-.43-2.04-.86-3.06-1.29"/>
  <path class="st0" d="M196.07,177.67c1.51.13,2.95-1.33,2.81-2.84-.66.66-1.31,1.32-1.97,1.98"/>
  <path class="st1" d="M155.12,122.15v6.22c0,.19.3.43.43.52.25.17.59.31.89.37.37.06,1.06.12,1.06-.41v-6.22c0-.19-.3-.43-.43-.52-.25-.17-.59-.31-.89-.37-.37-.06-1.06-.12-1.06.41h0Z"/>
  <path class="st1" d="M166.84,116.37c.26,2.14.53,4.29.79,6.43.07.6.54,1.24,1.18,1.32.56.07,1.11-.3,1.03-.92-.26-2.14-.53-4.29-.79-6.43-.07-.6-.54-1.24-1.18-1.32-.56-.07-1.11.3-1.03.92h0Z"/>
  <path class="st1" d="M152.51,139.44c2.1,4.99,9.29,4.12,13.2,2.14,4.74-2.4,7.67-7.23,8.91-12.26.38-1.56-2.03-2.23-2.41-.66-.98,4.01-3.08,7.91-6.67,10.15-1.71,1.07-3.67,1.75-5.69,1.82-1.54.05-4.22-.15-4.93-1.85-.26-.63-.82-1.06-1.54-.87-.59.16-1.13.92-.87,1.54h0Z"/>
  <path class="st2" d="M160.82,94.11c-6.43,4.31-13,8.43-19.68,12.34-2.78,1.62-.26,5.95,2.52,4.32,6.69-3.91,13.25-8.02,19.68-12.34,1.12-.75,1.61-2.2.9-3.42-.65-1.11-2.29-1.65-3.42-.9h0Z"/>
  <path class="st2" d="M161.69,93.51c-5.42,5.52-11.54,10.25-18.25,14.1-2.79,1.6-.27,5.92,2.52,4.32,7.06-4.05,13.56-9.08,19.26-14.88,2.26-2.3-1.28-5.84-3.54-3.54h0Z"/>
  <path class="st2" d="M132.67,123.06c.94.94,2.08,1.25,3.38,1.27.05,0,.75.05.81,0,.15-.16.36.31-.17-.24-.03-.03-.19-.27-.16-.29-.05.02,0,.8-.01.87-.23,2.95-.78,5.92-1.18,8.86-.81,6.05-1.63,12.11-2.44,18.16-.18,1.34,1.28,2.5,2.5,2.5,1.5,0,2.32-1.16,2.5-2.5.88-6.54,1.76-13.09,2.64-19.63.22-1.64.44-3.27.66-4.91.18-1.34.45-2.66.25-4.02-.22-1.53-1.1-2.83-2.55-3.43-.65-.27-1.33-.35-2.04-.38-.25,0-.56-.04-.81,0-.47.1-.25-.21.16.19-2.28-2.27-5.82,1.26-3.54,3.54h0Z"/>
  <path class="st2" d="M136.02,123.44c1.18.86,1.26,2.93,1.32,4.24.13,2.72.1,5.46.14,8.18.09,5.66.18,11.32.27,16.98.05,3.21,5.05,3.22,5,0-.1-6.32-.2-12.63-.3-18.95-.08-5.05.72-11.41-3.91-14.77-1.09-.79-2.79-.19-3.42.9-.74,1.26-.2,2.63.9,3.42h0Z"/>
  <path class="st2" d="M160.22,152.48c3.22,0,3.22-5,0-5s-3.22,5,0,5h0Z"/>
  <g>
    <path class="st2" d="M155.68,174c9.65,1.72,19.44,2.6,29.24,2.61.83,0,1.9-.18,2.06-1,.23-1.13-1.46-1.52-2.61-1.38-10.29,1.2-20.73,1.14-31-.2"/>
    <path class="st2" d="M155.51,174.61c4.88.86,9.79,1.53,14.73,1.97,2.52.23,5.05.39,7.58.51s4.95.32,7.39.16c1.1-.07,2.55-.57,2.41-1.95-.12-1.27-1.61-1.68-2.68-1.7-2.33-.05-4.76.47-7.09.62-2.5.16-5.01.25-7.52.26-5.67.03-11.33-.33-16.95-1.05-.8-.1-.79,1.15,0,1.25,8.35,1.07,16.8,1.33,25.2.74,1.98-.14,3.96-.44,5.94-.55.5-.03,2.62.18,1.39,1.02-.58.4-2.04.12-2.7.11-4.25-.05-8.49-.26-12.72-.63-4.91-.43-9.79-1.09-14.64-1.94-.79-.14-1.12,1.07-.33,1.21h0Z"/>
  </g>
  <path class="st2" d="M182.4,174.01h-4.59c-.8,0-.81,1.25,0,1.25h4.59c.8,0,.81-1.25,0-1.25h0Z"/>
  <g>
    <path class="st2" d="M182.8,175.27c-2.15-.34-4.35-.41-6.52-.21"/>
    <path class="st2" d="M182.97,174.67c-2.21-.34-4.45-.43-6.68-.24-.34.03-.62.27-.62.62,0,.32.29.65.62.62,2.12-.19,4.25-.13,6.35.19.33.05.67-.08.77-.44.08-.3-.1-.72-.44-.77h0Z"/>
  </g>
  <path class="st2" d="M193.28,174.2c5.34-7.53,10.67-15.06,16.01-22.6.47-.66-.62-1.28-1.08-.63-5.34,7.53-10.67,15.06-16.01,22.6-.47.66.62,1.28,1.08.63h0Z"/>
  <path class="st2" d="M195.11,171.67c5.6-6.57,10.8-13.47,15.55-20.67.44-.67-.64-1.3-1.08-.63-4.7,7.12-9.83,13.93-15.36,20.42-.52.61.36,1.5.88.88h0Z"/>
  <path class="st0" d="M197.31,177.94c.8,0,.81-1.25,0-1.25s-.81,1.25,0,1.25h0Z"/>
  <path class="st0" d="M198.27,177.86c.57-1.69,1.44-3.28,2.57-4.66.21-.26.26-.63,0-.88-.22-.22-.67-.26-.88,0-1.27,1.56-2.25,3.31-2.89,5.22-.11.32.12.68.44.77.34.09.66-.12.77-.44h0Z"/>
  <path class="st0" d="M201.52,183.29c.8,0,.81-1.25,0-1.25s-.81,1.25,0,1.25h0Z"/>
  <path class="st0" d="M213.75,162.65c.8,0,.81-1.25,0-1.25s-.81,1.25,0,1.25h0Z"/>
  <path class="st0" d="M192.89,183c-.11-.05.06.03.07.03.04.02.07.03.11.05.1.05.19.1.28.16.08.05.16.1.24.16.03.02.11.08.04.02.05.04.09.07.14.11.15.13.29.26.42.41.07.07.13.15.19.22-.07-.09.04.06.04.06.03.04.06.08.08.12.11.16.2.33.29.51.02.04.04.09.06.13.08.17-.04-.11.03.07.03.09.07.18.1.28.06.19.1.38.13.57s0-.12,0,.07c0,.05,0,.1.01.15,0,.11,0,.21,0,.32l.79-.6c-.12-.05-.1-.04-.23-.09-.09-.04-.18-.09-.28-.13-.19-.1-.38-.21-.56-.33-.34-.23-.61-.45-.92-.77-.24-.24-.65-.24-.88,0s-.24.64,0,.88c.72.73,1.58,1.28,2.54,1.65.39.15.79-.23.79-.6.01-2.04-1.29-3.88-3.16-4.65-.3-.12-.7.13-.77.44-.08.36.11.64.44.77h0Z"/>
  <path class="st2" d="M152.93,154.09c1.1,0,.41-1.17.01-1.6-.7-.76-1.92-1.65-3.02-1.65s-.41,1.17-.01,1.6c.7.76,1.92,1.65,3.02,1.65h0Z"/>
  <path class="st2" d="M147.27,117.87c-.59,3.73-.19,7.56,1.24,11.06.3.73,1.51.41,1.21-.33-1.35-3.28-1.8-6.89-1.24-10.4.13-.79-1.08-1.13-1.21-.33h0Z"/>
  <path class="st2" d="M146.83,118.8c-.46,6.55,1.27,13.15,4.9,18.63.44.67,1.52.04,1.08-.63-3.52-5.31-5.18-11.64-4.73-18,.06-.8-1.19-.8-1.25,0h0Z"/>
  <path class="st2" d="M159.85,152.1c5.7-6.29,11.4-12.58,17.1-18.87.54-.59-.34-1.48-.88-.88-5.7,6.29-11.4,12.58-17.1,18.87-.54.59.34,1.48.88.88h0Z"/>
  <path class="st2" d="M175.72,131.56c-.38.1-.74.31-1,.59s-.47.64-.55,1.03c-.03.17-.03.33.06.48.08.13.22.25.37.29.16.04.34.03.48-.06.13-.08.26-.22.29-.37.02-.1.05-.2.09-.29l-.06.15c.05-.13.12-.24.2-.35l-.1.13c.08-.1.17-.19.28-.28l-.13.1c.1-.08.21-.15.33-.2l-.15.06c.07-.03.14-.05.21-.07.15-.04.3-.15.37-.29s.11-.33.06-.48-.14-.3-.29-.37-.31-.11-.48-.06h0Z"/>
  <path class="st2" d="M176.08,133c-3.75,5.85-8,11.37-12.7,16.49-.54.59.34,1.48.88.88,4.77-5.2,9.08-10.81,12.89-16.75.44-.68-.65-1.31-1.08-.63h0Z"/>
  <path class="st0" d="M169.02,142.38c.8,0,.81-1.25,0-1.25s-.81,1.25,0,1.25h0Z"/>
  <path class="st2" d="M171.07,138.99c-3.14,2.32-4.97,5.74-7.36,8.74-1.25,1.56-2.67,2.95-4.43,3.92-2.03,1.13-4.29,1.75-6.52,2.37-.77.22-.45,1.42.33,1.21,2.13-.59,4.28-1.2,6.26-2.2,1.83-.92,3.38-2.22,4.71-3.77,2.58-3.02,4.38-6.78,7.63-9.18.64-.47.02-1.56-.63-1.08h0Z"/>
  <path class="st0" d="M163.8,147.76c-2.26,3.34-6.06,5.55-10.09,5.84-.8.06-.8,1.31,0,1.25,4.49-.33,8.65-2.73,11.17-6.46.45-.67-.63-1.29-1.08-.63h0Z"/>
  <path class="st2" d="M159.59,153.38c1.88-1.51,3.54-3.27,4.94-5.23.2-.27.05-.7-.22-.86-.31-.18-.66-.05-.86.22-1.34,1.87-2.95,3.54-4.74,4.98-.26.21-.22.66,0,.88.26.26.62.21.88,0h0Z"/>
  <path class="st2" d="M164.2,147.46c.4.82-.88,1.74-1.42,2.15-.85.64-1.73,1.22-2.66,1.75-1.83,1.04-3.78,1.82-5.82,2.35-.78.2-.45,1.41.33,1.21,2.42-.63,4.75-1.61,6.88-2.92,1.01-.62,2.09-1.31,2.93-2.15s1.36-1.89.83-3c-.35-.72-1.43-.09-1.08.63h0Z"/>
  <path class="st2" d="M163.15,148.24c-.04.84-.63,1.49-1.23,2.01-.71.62-1.52,1.14-2.31,1.64-1.67,1.06-3.44,1.95-5.29,2.65-.74.28-.42,1.49.33,1.21,2.1-.8,4.12-1.81,6-3.05,1.6-1.05,3.65-2.34,3.74-4.47.03-.8-1.22-.8-1.25,0h0Z"/>
  <path class="st0" d="M166.82,95.39c-3.97,2.51-7.95,5.03-11.92,7.54-.68.43-.05,1.51.63,1.08,3.97-2.51,7.95-5.03,11.92-7.54.68-.43.05-1.51-.63-1.08h0Z"/>
  <path class="st2" d="M166.81,94.45c-3.58,3.98-7.86,7.26-12.64,9.66-.72.36-.09,1.44.63,1.08,4.87-2.45,9.26-5.8,12.9-9.85.54-.6-.35-1.48-.88-.88h0Z"/>
  <g>
    <path class="st2" d="M72.45,105.73c-.64,1.64-1.28,3.27-1.92,4.91-.36-.51-.57-1.13-.57-1.76"/>
    <path class="st2" d="M71.85,105.57l-1.92,4.91,1.14-.15c-.3-.44-.47-.92-.49-1.44-.02-.8-1.27-.81-1.25,0,.02.74.23,1.46.66,2.07.32.46.94.36,1.14-.15.64-1.64,1.28-3.27,1.92-4.91.12-.31-.14-.69-.44-.77-.35-.1-.65.12-.77.44h0Z"/>
  </g>
  <g>
    <path class="st2" d="M67.78,101.97c.55,2.73,1.33,5.41,2.32,8"/>
    <path class="st2" d="M67.17,102.14c.56,2.73,1.33,5.4,2.32,8,.12.32.42.53.77.44.3-.08.56-.45.44-.77-.99-2.6-1.76-5.28-2.32-8-.16-.79-1.37-.45-1.21.33h0Z"/>
  </g>
  <g>
    <path class="st2" d="M67.82,102.41c-.8,3.25-.19,6.82,1.64,9.62"/>
    <path class="st2" d="M67.22,102.24c-.82,3.44-.21,7.12,1.7,10.1.43.67,1.52.05,1.08-.63-1.73-2.7-2.32-6.01-1.58-9.14.19-.78-1.02-1.12-1.21-.33h0Z"/>
  </g>
  <g>
    <path class="st2" d="M70.79,106.18c1.54,3.44,3.09,6.87,4.63,10.31"/>
    <path class="st2" d="M70.25,106.5c1.54,3.44,3.09,6.87,4.63,10.31.33.73,1.41.1,1.08-.63-1.54-3.44-3.09-6.87-4.63-10.31-.33-.73-1.41-.1-1.08.63h0Z"/>
  </g>
  <path class="st2" d="M68.24,102.49c.05.02.11.04.16.07l-.15-.06c.43.18.84.41,1.22.67.13.09.34.1.48.06s.3-.15.37-.29c.08-.15.12-.32.06-.48s-.15-.28-.29-.37c-.48-.33-.99-.58-1.53-.8-.14-.06-.36-.01-.48.06s-.25.22-.29.37c-.04.16-.03.34.06.48l.1.13c.08.08.17.13.28.16h0Z"/>
  <path class="st2" d="M68.63,102.82c.37.71.65,1.47.83,2.25s.25,1.6.72,2.26c.43.61,1.26,1.18,2.05.95.54-.16.59-.85.38-1.28-.19-.39-.54-.59-.96-.63-.34-.03-.62.31-.62.62,0,.36.29.59.62.62-.07,0-.13-.02-.16-.07-.03-.05-.02-.04.02.02-.02-.06,0-.17-.05-.07l.44-.44s-.06,0-.11-.02c-.12-.03-.13-.04-.23-.09-.13-.08-.26-.2-.35-.33-.27-.4-.35-.9-.44-1.36-.21-1.08-.56-2.12-1.07-3.1-.16-.3-.57-.39-.86-.22-.3.18-.38.55-.22.86h0Z"/>
  <path class="st2" d="M153.56,155.48c.13-.02.26-.06.39-.11.22-.08.44-.17.64-.29s.38-.26.56-.41c.11-.09.2-.19.29-.3.12-.11.21-.25.26-.4.08-.15.11-.31.11-.48,0-.17-.03-.33-.11-.48-.05-.15-.14-.29-.26-.4-.24-.22-.55-.38-.88-.37l-.33.04c-.21.06-.4.17-.55.32-.19.17-.35.38-.5.59-.09.13-.17.27-.24.42l2.33.63c-.01-.1-.02-.21-.04-.31,0-.17-.03-.33-.11-.48-.05-.15-.14-.29-.26-.4-.11-.12-.25-.21-.4-.26-.15-.08-.31-.11-.48-.11l-.33.04c-.21.06-.4.17-.55.32l-.2.25c-.11.19-.17.41-.17.63.01.1.02.21.04.31l.04.33c.04.16.11.3.22.43.06.09.13.17.22.22.12.11.26.19.43.22l.33.04.33-.04c.16-.04.3-.11.43-.22.14-.09.24-.21.32-.35.07-.16.16-.32.27-.46l-.2.25c.08-.11.17-.2.27-.29l-1.77-1.77c-.11.14-.23.26-.37.36l.25-.2c-.15.11-.31.21-.48.28l.3-.13c-.15.06-.31.11-.48.14-.16.04-.3.11-.43.22-.14.09-.24.21-.32.35-.09.14-.14.3-.15.46-.04.17-.03.33.02.5.1.3.29.59.57.75l.3.13c.22.06.44.06.66,0h0Z"/>
  <path class="st2" d="M151.77,174.39c5.92.54,11.86.8,17.81.75,2.89-.03,5.78-.13,8.66-.3,1.48-.09,2.97-.2,4.45-.32,1.08-.09,2.84-.45,3.6.58.47.64,1.56.02,1.08-.63-1.38-1.86-3.93-1.25-5.92-1.1-3.29.26-6.59.42-9.89.49-6.6.14-13.21-.11-19.79-.72-.8-.07-.8,1.18,0,1.25h0Z"/>
  <path class="st2" d="M151.28,173.19c-.46.28-.69.78-.45,1.31.26.57.96.75,1.5.92,2.1.65,4.37.71,6.55.82,4.7.23,9.41.26,14.11.1.8-.03.81-1.28,0-1.25-3.58.12-7.16.14-10.74.03-1.75-.05-3.49-.12-5.24-.24-.87-.06-1.75-.12-2.61-.26-.39-.07-.78-.14-1.17-.24-.26-.06-.51-.14-.76-.22-.27-.23-.46-.19-.57.12.68-.42.05-1.51-.63-1.08h0Z"/>
  <path class="st2" d="M152.1,174.56c1.52.56,3.12.86,4.74.9s3.36-.13,5.03.08c.34.04.62-.32.62-.62,0-.37-.29-.58-.62-.62-1.61-.2-3.23-.05-4.84-.08s-3.11-.31-4.59-.86c-.76-.28-1.08.93-.33,1.21h0Z"/>
  <path class="st2" d="M152.2,175.02c3.76.46,7.53.62,11.31.47v-1.25c-1.71.19-3.42.39-5.13.58-.78.09-.82,1.26,0,1.25,6.08-.1,12.16-.21,18.23-.31.8-.01.81-1.26,0-1.25-6.08.1-12.16.21-18.23.31v1.25c1.71-.19,3.42-.39,5.13-.58.78-.09.82-1.28,0-1.25-3.78.14-7.56-.02-11.31-.47-.8-.1-.79,1.15,0,1.25h0Z"/>
  <path class="st2" d="M212.29,144.97c.66-1.02,1.32-2.04,1.98-3.06l-1.14-.15c1.04,7.38-5.88,13.22-10.34,18.11-2.45,2.69-4.92,5.37-7.36,8.07-1.91,2.12-3.79,4.4-4.23,7.31l1.23.17c.03-2.93,1.59-5.42,3.3-7.68,1.85-2.44,3.81-4.81,5.69-7.24,3.89-5.04,7.65-10.18,11.28-15.41.46-.66-.62-1.29-1.08-.63-3.88,5.57-7.9,11.05-12.06,16.41-1.83,2.36-3.79,4.63-5.52,7.06-1.59,2.23-2.83,4.69-2.86,7.48,0,.68,1.12.88,1.23.17.53-3.49,3.23-6.01,5.5-8.5,2.58-2.84,5.17-5.67,7.75-8.51,4.36-4.78,9.68-10.1,8.68-17.15-.08-.57-.88-.55-1.14-.15-.66,1.02-1.32,2.04-1.98,3.06-.44.68.64,1.31,1.08.63h0Z"/>
  <path class="st2" d="M211.54,143.8c-2.05,3.1-4,6.26-5.85,9.48-.4.7.68,1.33,1.08.63,1.85-3.22,3.8-6.38,5.85-9.48.45-.67-.64-1.3-1.08-.63h0Z"/>
  <path class="st2" d="M213.4,146.42c-.06-.82.12-1.61.61-2.21l-2.09-1.22c-.23,1.6-.7,3.18-1.38,4.55-.74,1.49-1.62,2.71-2.78,3.86s.63,2.91,1.77,1.77c2.55-2.56,4.29-5.93,4.8-9.52.08-.56-.05-1.11-.57-1.41-.44-.26-1.17-.23-1.51.2-.92,1.13-1.45,2.51-1.34,3.98.05.67.54,1.25,1.25,1.25.64,0,1.3-.57,1.25-1.25h0Z"/>
  <path class="st2" d="M211.41,146.29c.06,1.02-.47,1.86-1.04,2.68-.66.94-1.36,1.84-2.07,2.74-1.49,1.87-3.07,3.67-4.72,5.4-1.11,1.16.65,2.93,1.77,1.77,1.8-1.89,3.52-3.86,5.13-5.91,1.48-1.89,3.59-4.09,3.44-6.67-.04-.67-.55-1.25-1.25-1.25-.65,0-1.29.57-1.25,1.25h0Z"/>
  <path class="st2" d="M205.63,153.91l-.66.76,2.13.88.04-.2c.6-1.19-1.02-2.68-1.96-1.51-2.59,3.19-5.17,6.39-7.76,9.58-1.24,1.53-2.51,3.06-3.73,4.61-1.08,1.38-2.08,2.83-2.4,4.58-.2,1.09,1.22,2.28,2.09,1.22,1.73-2.11,3.4-4.26,5.02-6.46.95-1.3-1.21-2.55-2.16-1.26-1.49,2.03-3.03,4.01-4.63,5.95l2.09,1.22c.28-1.58,1.23-2.83,2.22-4.06,1.23-1.53,2.47-3.05,3.71-4.58,2.44-3.01,4.87-6.02,7.31-9.03l-1.96-1.51c-.25.49-.37.92-.38,1.46-.03,1.04,1.42,1.71,2.13.88l.66-.76c1.05-1.21-.71-2.99-1.77-1.77h0Z"/>
  <path class="st2" d="M201.28,172.96c.77-.99,1.39-2.06,1.84-3.23.12-.31-.13-.7-.44-.77-.36-.08-.64.11-.77.44-.03.07-.05.13-.08.2-.01.03-.03.06-.04.1.03-.07.03-.07,0,0-.06.13-.11.26-.17.38-.12.24-.24.49-.38.72s-.28.47-.43.69c-.08.12-.16.23-.24.35-.04.06-.08.11-.12.17-.02.03-.04.06-.06.08.04-.06.04-.06,0,0-.11.14-.18.26-.18.44,0,.15.07.34.18.44.22.21.67.28.88,0h0Z"/>
  <path class="st2" d="M200.83,173.35c4.95-6.04,10.48-12,13.69-19.21.32-.73-.75-1.37-1.08-.63-3.17,7.12-8.61,12.99-13.49,18.96-.51.62.37,1.51.88.88h0Z"/>
  <path class="st2" d="M197.11,177.13s0,.02-.01.03l.06-.15c-.03.08-.07.15-.13.21l.1-.13c-.05.07-.12.13-.19.18l.13-.1c-.07.05-.15.1-.23.13l.15-.06c-.08.03-.16.06-.25.07l.17-.02c-.05,0-.1,0-.15,0-.16,0-.33.07-.44.18s-.19.29-.18.44.06.33.18.44.27.18.44.18c.16,0,.32-.02.47-.06s.3-.11.43-.2.25-.18.35-.3c.06-.08.13-.16.18-.25s.09-.19.13-.29c.03-.08.03-.17.01-.25,0-.08-.03-.16-.07-.23-.08-.13-.22-.25-.37-.29-.16-.04-.34-.03-.48.06l-.13.1c-.08.08-.13.17-.16.28h0Z"/>
  <path class="st2" d="M196.38,178.06c1.65-2.47,3.5-4.81,5.53-6.98.55-.59-.33-1.47-.88-.88-2.1,2.25-4.02,4.67-5.72,7.23-.45.67.63,1.3,1.08.63h0Z"/>
  <path class="st2" d="M196.15,178.11c.16-.23.33-.45.5-.68.05-.06.09-.12.14-.18-.03.04-.04.06,0,0,.02-.03.04-.05.06-.08.09-.11.18-.23.27-.34.36-.45.73-.88,1.11-1.31.22-.24.26-.65,0-.88-.24-.22-.65-.26-.88,0-.81.91-1.56,1.86-2.27,2.84-.19.27-.05.71.22.86.32.17.65.06.86-.22h0Z"/>
  <path class="st2" d="M198.01,175.9l-.6,1.08,1.08.63c.04-.09.08-.17.13-.25.02-.04.05-.07.07-.11.01-.02.12-.15.02-.04.12-.15.25-.28.4-.4l-1.04-.61c-.16.54-.33,1.09-.49,1.63-.08.27-.16.53-.24.8-.02.05-.03.11-.05.16,0,.01-.02.09-.03.09,0,0,.04-.11.01-.04-.03.06.02-.03.03-.04.03-.03.06-.04.09-.06.1-.07-.08.04.03,0,.07-.03.01,0-.03,0-.05,0-.11,0-.16,0-.12-.01.11.02-.02,0-.11-.02-.21-.04-.32-.06-.1-.02-.2-.05-.29-.08,0,0-.15-.06-.15-.05,0,0,.11.05.04.02-.03-.02-.07-.03-.1-.05-.04-.02-.08-.04-.12-.07-.02-.01-.04-.03-.06-.04-.07-.04.08.07.02.02-.03-.03-.07-.06-.1-.09-.02-.02-.03-.03-.05-.05-.09-.09.03.06,0,0-.02-.03-.04-.06-.05-.09-.07-.12.02.1,0,0,0-.03-.02-.07-.03-.1-.02-.06.02-.07,0,.06,0-.02,0-.05,0-.07,0-.05,0-.1,0-.14,0-.1-.04.14,0,0,.01-.04.03-.09.04-.13.01-.06-.03.07-.03.07.01-.01.02-.04.03-.06,0,0,.03-.04.04-.06,0,.02-.1.11-.04.05.01-.01.02-.02.03-.04.07-.08,0,.02-.04.03.02,0,.15-.08.04-.03-.09.04-.02,0,0,0s.06-.01.08-.02c.32-.05.53-.48.44-.77-.12-.36-.42-.49-.77-.44-.55.08-.96.6-1.05,1.12-.11.6.07,1.2.54,1.6s1.03.58,1.61.66c.37.05.73.09,1.06-.12.36-.23.46-.64.58-1.02.23-.75.45-1.5.68-2.25.08-.25-.05-.58-.29-.71-.27-.14-.53-.08-.76.1-.35.28-.63.65-.82,1.05-.14.3-.09.69.22.86.29.16.69.08.86-.22l.6-1.08c.16-.29.08-.7-.22-.86s-.69-.08-.86.22h0Z"/>
  <path class="st2" d="M196.77,177.57l-.02.39c0,.11.03.22.09.32.04.07.09.13.16.18.06.06.13.09.21.11.11.03.22.03.33,0,.36-.09.67-.28.95-.52l-.88-.88c-.1.11-.2.21-.32.29l.13-.1c-.14.11-.3.2-.46.28-.07.04-.13.09-.18.16-.06.06-.09.13-.11.21-.03.08-.03.17-.01.25,0,.08.03.16.07.23.09.13.21.25.37.29l.17.02c.11,0,.22-.03.32-.09.15-.07.29-.16.42-.25.17-.13.34-.26.48-.42.11-.12.18-.27.18-.44,0-.09-.01-.17-.05-.24-.03-.08-.07-.14-.13-.2-.12-.11-.28-.19-.44-.18l-.17.02c-.11.03-.2.08-.28.16-.03.02-.05.05-.08.07l.13-.1c-.11.09-.23.16-.37.21l.15-.06c-.07.03-.15.06-.23.08l.79.6.02-.39c0-.09-.01-.17-.05-.24-.03-.08-.07-.14-.13-.2-.06-.06-.12-.1-.2-.13-.07-.04-.15-.06-.24-.05-.16,0-.33.06-.44.18l-.1.13c-.06.1-.08.2-.09.32h0Z"/>
  <path class="st2" d="M177.59,181.36c1.97.31,3.9,1.05,5.81,1.62s3.97,1.19,5.95,1.78c.77.23,1.1-.97.33-1.21-1.98-.59-3.97-1.19-5.95-1.78s-3.84-1.31-5.81-1.62c-.79-.13-1.13,1.08-.33,1.21h0Z"/>
  <path class="st2" d="M178.32,181.47c2.74,1.6,5.82,2.28,8.9,2.9,1.68.34,3.24.78,4.75,1.6s2.98,1.69,4.47,2.54c.41.24.94-.06.94-.54.01-1.18-.01-2.37-.12-3.55-.07-.82-.19-1.65-.71-2.31-.96-1.22-2.92-1.65-4.4-1.65-1,0-1.5.56-2.35.96-1.03.48-2.32.39-3.43.37-2.35-.04-4.67-.38-6.94-.99-.78-.21-1.11,1-.33,1.21,1.82.49,3.68.81,5.56.96,1.72.13,3.78.33,5.42-.31.36-.14.66-.33.97-.54.56-.38,1.08-.43,1.74-.34.73.11,1.53.24,2.17.61.9.52,1,1.44,1.07,2.4.08,1.06.1,2.13.09,3.2l.94-.54c-2.87-1.64-5.61-3.45-8.88-4.13s-6.4-1.24-9.24-2.91c-.7-.41-1.33.67-.63,1.08h0Z"/>
  <path class="st2" d="M177.59,181.16c.39.74,1.17.98,1.93,1.16,1.05.26,2.11.5,3.17.73,2.12.46,4.26.85,6.4,1.19.79.12,1.13-1.08.33-1.21-1.93-.3-3.85-.65-5.76-1.05-.92-.19-1.84-.4-2.75-.61-.47-.11-.95-.21-1.41-.34-.33-.09-.66-.18-.82-.5-.37-.71-1.45-.08-1.08.63h0Z"/>
  <path class="st2" d="M177.97,181.37c4.52.71,9.1.93,13.67.65.8-.05.8-1.3,0-1.25-4.45.28-8.92.08-13.33-.6-.79-.12-1.13,1.08-.33,1.21h0Z"/>
  <path class="st2" d="M183.25,183.21c2.66.3,5.34.36,8.01.21.65-.04,1.28-.55,1.25-1.25-.03-.64-.55-1.29-1.25-1.25-2.67.16-5.35.09-8.01-.21-.65-.07-1.28.63-1.25,1.25.03.74.55,1.17,1.25,1.25h0Z"/>
  <path class="st2" d="M187.32,183.94c1.1.25,2.21.57,3.32.76.72.13,1.41-.08,1.79-.75.28-.5.46-1.09.68-1.62.36-.87-.7-1.84-1.54-1.54-2.92,1.05-6.03,1.01-8.93-.08l-.33,2.46c1.82.1,3.76.1,5.53.42.76.14,1.44.34,2.07.77.87.6,1.56,1.13,2.68.9.66-.14,1.04-.92.87-1.54-.19-.69-.87-1.01-1.54-.87.17-.03.13.03,0-.1-.14-.14-.35-.25-.51-.37-.3-.22-.6-.42-.94-.58-.78-.37-1.6-.59-2.45-.71-1.89-.28-3.81-.33-5.71-.44-.61-.03-1.16.5-1.23,1.08-.08.65.3,1.14.9,1.37,3.26,1.24,6.98,1.26,10.26.08l-1.54-1.54c-.15.37-.31.83-.49,1.12l.45-.45.06-.03h.66c-1.14-.19-2.27-.52-3.4-.78-.66-.15-1.35.2-1.54.87-.17.63.21,1.39.87,1.54h0Z"/>
  <path class="st2" d="M189.39,184.82h1.61c-.11-.83-.22-1.65-.33-2.46-.06.02-.13.03-.19.04l.33-.04c-.12.02-.24.02-.36,0l.33.04c-.12-.02-.24-.05-.35-.1l.3.13c-.1-.05-.2-.1-.29-.17l.25.2s-.06-.05-.09-.08c-.24-.22-.55-.37-.88-.37-.17,0-.33.03-.48.11-.15.05-.29.14-.4.26-.22.24-.38.55-.37.88s.12.65.37.88c.32.3.72.54,1.16.65s.91.11,1.35-.02c.16-.04.3-.11.43-.22.14-.09.24-.21.32-.35l.13-.3c.05-.17.06-.33.02-.5,0-.11-.03-.22-.09-.32-.05-.15-.14-.29-.26-.4-.24-.22-.55-.37-.88-.37h-1.61c-.32,0-.66.15-.88.37-.12.11-.21.25-.26.4-.08.15-.11.31-.11.48.01.32.12.66.37.88s.55.37.88.37h0Z"/>
  <path class="st2" d="M185.51,184.45c.48-.03.97-.02,1.45.05l-.33-.04c.14.02.29.04.43.07.33.07.66.05.96-.13.26-.15.51-.45.57-.75.07-.32.06-.68-.13-.96-.17-.26-.43-.51-.75-.57-.73-.14-1.47-.21-2.21-.16-.17,0-.33.03-.48.11-.15.05-.29.14-.4.26-.22.22-.38.57-.37.88s.12.66.37.88.55.39.88.37h0Z"/>
  <path class="st2" d="M184.82,183.98c.66.24,1.31.47,1.97.71.17.05.33.06.5.02.17,0,.32-.06.46-.15.26-.15.51-.45.57-.75.07-.32.06-.68-.13-.96l-.2-.25c-.16-.15-.34-.26-.55-.32-.66-.24-1.31-.47-1.97-.71-.17-.05-.33-.06-.5-.02-.17,0-.32.06-.46.15-.26.15-.51.45-.57.75-.07.32-.06.68.13.96l.2.25c.16.15.34.26.55.32h0Z"/>
  <path class="st2" d="M184.6,183.82c3.43,2.13,7.53,2.82,10.92,5,.95.61,2.09-.39,1.84-1.41-.16-.63-.25-1.26-.24-1.91s.07-1.35-.03-2.03c-.2-1.3-1.09-2.21-2.31-2.64-1.02-.36-2.71-.55-3.56.27-.54.52-.58,1.28-.59,1.97s.03,1.37.09,2.05l2.46-.33c-.09-.34-.2-.69-.19-1.04,0-.07.13-.37.03-.3l-1.84-.75c.12.79.13,1.6.09,2.4h2.5c0-.53.05-1.07.26-1.57l-2.33-.63c.05.87.1,1.73.15,2.6.09,1.6,2.46,1.62,2.5,0,.03-1.04.06-2.08.09-3.12l-2.46.33c.27.9.46,1.82.54,2.76.06.67.53,1.25,1.25,1.25s1.25-.57,1.25-1.25l.02-2.86-2.46.33c.26,1.03.43,2.05.5,3.11.11,1.61,2.38,1.61,2.5,0,.07-.95.1-1.89.07-2.84h-2.5l.46,3.41c.09.67.51,1.25,1.25,1.25.69,0,1.24-.57,1.25-1.25l.05-3.23-2.46.33c.1.65.1,1.32.06,1.97s.6,1.25,1.25,1.25c.73,0,1.19-.57,1.25-1.25.08-.88,0-1.75-.21-2.6-.37-1.57-2.78-.9-2.41.66.15.65.17,1.28.12,1.94h2.5c.06-.89-.01-1.76-.15-2.64-.09-.61-.82-.98-1.37-.9-.61.09-1.07.59-1.08,1.23l-.05,3.23h2.5l-.46-3.41c-.09-.67-.51-1.25-1.25-1.25-.66,0-1.27.57-1.25,1.25.02.95,0,1.9-.07,2.84h2.5c-.09-1.27-.28-2.54-.59-3.77-.35-1.38-2.45-1.07-2.46.33l-.02,2.86h2.5c-.1-1.16-.3-2.31-.63-3.42-.4-1.36-2.42-1.08-2.46.33-.03,1.04-.06,2.08-.09,3.12h2.5c-.05-.87-.1-1.73-.15-2.6-.03-.55-.37-1.05-.92-1.21-.48-.13-1.2.07-1.41.57-.39.92-.61,1.82-.6,2.83.02,1.62,2.41,1.6,2.5,0,.06-1.03-.02-2.04-.17-3.06-.11-.75-1.24-1.2-1.84-.75-1.4,1.06-1.4,2.59-.99,4.16.35,1.32,2.6,1.1,2.46-.33-.05-.48-.08-.96-.09-1.44,0-.27,0-.55,0-.82,0-.12,0-.24.02-.35l-.42.54s.74.03.73.03c.34.05.67.13.89.29,0,0,.16.14.12.09.1.13.14.26.17.42.07.37.02.77,0,1.15-.05,1.03.06,2.06.32,3.06l1.84-1.41c-3.4-2.18-7.5-2.87-10.92-5-1.37-.85-2.63,1.31-1.26,2.16h0Z"/>
  <path class="st2" d="M199.81,182.91c-.35,1.29-.37,2.54-.07,3.84.1.46.73.61,1.04.28,3.89-4.1,6.66-9.19,9.5-14.03,2.67-4.56,6.27-9.56,6.18-15.07-.01-.8-1.26-.81-1.25,0,.05,2.74-.93,5.26-2.17,7.66s-2.69,4.82-4.08,7.2c-2.71,4.61-5.34,9.46-9.05,13.36l1.04.28c-.25-1.09-.22-2.09.07-3.17.21-.78-.99-1.11-1.21-.33h0Z"/>
  <path class="st2" d="M201.35,183.58c1.84-4.74,4.25-9.25,7.17-13.41,1.44-2.05,3.04-3.95,4.66-5.86,1.4-1.65,2.67-3.37,3.29-5.48.23-.77-.98-1.1-1.21-.33-.69,2.35-2.31,4.16-3.88,5.98s-3.07,3.76-4.44,5.77c-2.77,4.05-5.03,8.42-6.8,12.99-.29.75.92,1.08,1.21.33h0Z"/>
  <path class="st2" d="M214.86,157.79c-1.73,3.31-3.69,6.49-5.91,9.49-1.93,2.61-4.21,5.15-4.46,8.54-.06.8,1.19.8,1.25,0,.24-3.3,2.84-5.89,4.68-8.44,2.06-2.85,3.9-5.84,5.52-8.96.37-.71-.71-1.35-1.08-.63h0Z"/>
  <path class="st2" d="M214.16,162.55c-6.29,6.51-11.16,14.25-14.33,22.73-.25.66.83,1.12,1.14.48,3.4-6.99,7.57-13.58,12.45-19.63l-.98-.76c-3.41,6.24-7.19,12.26-11.33,18.05-.47.66.61,1.28,1.08.63,4.14-5.78,7.92-11.81,11.33-18.05.32-.59-.52-1.33-.98-.76-4.95,6.14-9.2,12.79-12.65,19.88l1.14.48c3.09-8.27,7.87-15.83,14.01-22.17.56-.58-.32-1.46-.88-.88h0Z"/>
  <path class="st2" d="M184.51,175.83c.68.07,1.32-.16,1.92-.44.23-.11.45-.23.68-.35.11-.06.23-.12.34-.17-.1.04-.09.04.05-.01.22-.06.16-.07-.2-.03l-.55-.32-.23-.51v.16c-.01.1,0,.21,0,.31,0,.13-.02.4-.03.45-.05.41-.16.82-.29,1.22-.02.05-.12.25-.1.3-.06-.15.4-.31.46-.4.05-.07.13,0-.04-.04-.11-.02-.22-.02-.33-.04-.43-.05-.88-.1-1.3-.16-1.72-.23-3.46-.54-5.17-.9-.64-.13-1.38.19-1.54.87-.14.63.19,1.39.87,1.54,1.55.33,3.12.61,4.69.83.81.12,1.63.22,2.45.32.97.11,1.79-.14,2.21-1.11.33-.77.49-1.58.58-2.41s.12-1.9-.72-2.39c-.8-.47-1.68-.04-2.42.34-.26.13-.52.29-.79.4.2-.08-.23.06-.28.07.23-.05-.19-.01-.27-.02-.65-.06-1.28.62-1.25,1.25.03.73.55,1.18,1.25,1.25h0Z"/>
  <path class="st2" d="M181.53,176.06c1.39-.49,2.79-.92,4.22-1.29.33-.09.66-.18.99-.25l.09-.02c.11-.02.12-.02,0,0-.14-.04-.02.02.05,0,.15-.02-.22-.05-.08-.01.1.03-.2-.1-.24-.15-.12-.13-.16-.28-.2-.43.02.08,0,.18,0,.27,0,.16,0,.32,0,.49,0,.39.01.77.02,1.16,0,.65.57,1.28,1.25,1.25s1.26-.55,1.25-1.25c0-.45-.01-.89-.02-1.34,0-.52,0-1.03-.25-1.5-.52-1.02-1.72-1.08-2.69-.84-1.71.42-3.4.93-5.06,1.51-.62.22-1.09.86-.87,1.54.2.61.88,1.1,1.54.87h0Z"/>
  <path class="st2" d="M166.28,94.49c-.18.27-.67.41-.96.53-.58.24-1.12.53-1.63.91-1.07.79-2,1.75-3.03,2.6-1.99,1.66-4.18,3.06-6.49,4.24l1.26,2.16c1.07-.8,2.15-1.6,3.22-2.4.54-.4.82-1.08.45-1.71-.31-.53-1.17-.85-1.71-.45-1.07.8-2.15,1.6-3.22,2.4-1.27.95-.2,2.91,1.26,2.16,2.5-1.28,4.84-2.83,6.99-4.63.98-.82,1.87-1.81,2.95-2.51s2.3-.89,3.06-2.03c.89-1.35-1.28-2.6-2.16-1.26h0Z"/>
  <path class="st2" d="M139.64,112.72c1.28.21,2.33.96,3.55,1.35s2.56.26,3.75-.33c1.28-.63,2.4-1.66,3.52-2.53,1.34-1.03,2.67-2.07,4-3.11,5.25-4.12,10.45-8.31,15.59-12.57,1.24-1.03-.54-2.79-1.77-1.77-4.64,3.85-9.33,7.65-14.07,11.38-2.36,1.86-4.7,3.76-7.12,5.54-1.06.78-2.07,1.4-3.4.92-1.15-.41-2.15-1.09-3.38-1.29-1.57-.26-2.25,2.15-.66,2.41h0Z"/>
  <path class="st2" d="M72.16,98.53c12.39,3.15,24.98,5.47,37.68,6.99,1.59.19,1.58-2.31,0-2.5-12.47-1.49-24.84-3.81-37.01-6.9-1.56-.4-2.23,2.01-.66,2.41h0Z"/>
  <path class="st2" d="M76.8,98.31c2.23,1.7,5.48,1.97,8.15,2.42,3.1.53,6.22.91,9.35,1.17,1.6.13,1.6-2.37,0-2.5-2.91-.23-5.81-.59-8.68-1.08-1.37-.23-2.74-.49-4.09-.79-1.25-.27-2.43-.6-3.46-1.38-.54-.41-1.39-.08-1.71.45-.38.64-.09,1.3.45,1.71h0Z"/>
  <path class="st2" d="M95.34,102.27c2.53,1.5,5.34,2.29,8.21,2.88,3.22.66,6.45,1.24,9.68,1.85,6.63,1.26,13.26,2.53,19.89,3.79,1.57.3,2.25-2.11.66-2.41-6.47-1.23-12.94-2.47-19.41-3.7-3.1-.59-6.21-1.17-9.31-1.78-2.94-.58-5.86-1.26-8.46-2.8-1.39-.82-2.65,1.34-1.26,2.16h0Z"/>
  <path class="st2" d="M94.63,102.53c2.87,1.5,5.97,2.35,9.13,3.03,3.4.73,6.81,1.41,10.22,2.11,7.02,1.45,14.05,2.9,21.07,4.35,1.57.32,2.24-2.09.66-2.41-6.86-1.42-13.72-2.83-20.59-4.25-3.35-.69-6.7-1.37-10.05-2.08-3.15-.66-6.31-1.41-9.18-2.92-1.42-.74-2.69,1.41-1.26,2.16h0Z"/>
  <path class="st2" d="M111.57,106.73c7.06,2.19,14.13,4.37,21.19,6.56,1.73.54,3.46,1.09,5.2,1.6,1.53.45,3.15.98,4.76,1.01,2.93.07,4.75-2.19,6.21-4.43.88-1.35-1.28-2.61-2.16-1.26-.65,1-1.35,2.11-2.38,2.75-1.27.79-2.78.32-4.12-.03-3.11-.81-6.16-1.84-9.22-2.79-6.27-1.94-12.54-3.88-18.81-5.82-1.54-.48-2.2,1.94-.66,2.41h0Z"/>
  <path class="st2" d="M129.89,110.73c2.3.99,4.67,1.71,7.08,2.36s4.78,1.2,7.3,1.06l-1.08-1.88c.05-.08-.31,0-.39.01-.26.03-.52.03-.78.03-.58,0-1.16-.03-1.73-.11-1.25-.17-2.48-.53-3.67-.92-2.4-.79-4.73-1.78-7.2-2.37l-.66,2.41c4.44.85,8.92,1.69,13.46,1.53,1.6-.06,1.61-2.56,0-2.5-4.32.15-8.57-.63-12.79-1.44-1.56-.3-2.25,2.03-.66,2.41,2.89.69,5.6,1.95,8.46,2.76,1.39.39,2.84.68,4.28.73s3.04.03,3.85-1.28c.48-.78-.13-1.93-1.08-1.88-2.31.13-4.42-.37-6.64-.97s-4.39-1.21-6.48-2.11c-.62-.27-1.34-.18-1.71.45-.31.53-.17,1.44.45,1.71h0Z"/>
  <path class="st2" d="M137.17,120.61c.3.4.61.8.88,1.22.14.21.27.42.39.64.07.12.13.25.19.38.06.13.06.13,0,0,.02.05.04.1.06.15.36,1,.28,2.06.81,3.02.62,1.1,2.31.59,2.33-.63,0-.65.02-1.3.02-1.95,0-.3.02-.6-.01-.9-.05-.52-.23-.94-.57-1.34-.42-.48-.98-.87-1.51-1.22-.25-.16-.5-.32-.76-.46-.12-.07-.26-.16-.4-.2-.11-.07-.09-.04.05.06-.27-.29-.21,0,.18.86l-.32.55-.64.25c.05,0,.11,0,.16,0,.07,0,.15.01.22,0,.14-.01-.18-.05.05,0,.07.02.14.03.21.05.03,0,.31.11.16.05-.13-.05.07.03.09.05.02,0,.34.22.35.22-.12-.09-.15-.11-.08-.05.02.02.05.04.07.06.04.04.09.08.13.13.05.05.1.11.15.17.14.15-.03-.03-.03-.04.01,0,.23.36.25.39.03.05.06.11.09.16.02.03.12.28.05.1-.06-.16.01.04.02.07.03.07.05.15.07.22.04.13.07.27.1.4.02.07.02.15.04.22.01.09.01.08,0-.04v.12c.03.18.04.35.05.53.02.73-.05,1.46-.12,2.19-.07.65.62,1.28,1.25,1.25.73-.03,1.18-.55,1.25-1.25.13-1.27.22-2.55-.08-3.81-.28-1.16-.92-2.2-1.88-2.92-1.01-.77-3.51-1.41-4.02.27-.26.86.33,1.61,1.07,1.98.52.26,1,.56,1.46.9-.04-.03-.17-.14,0,0,.06.05.11.09.17.14s.11.09.16.14c.02.02.22.22.11.09s.02.15,0-.02c0-.06-.03-.32-.03-.08,0,.15,0,.3,0,.45,0,.73-.02,1.47-.03,2.2l2.33-.63c-.03-.06-.07-.12-.09-.18.06.15.06.15.02.02-.02-.1-.06-.19-.08-.29-.05-.23-.09-.47-.12-.7-.07-.51-.17-.99-.36-1.46-.41-1.03-1.02-1.91-1.69-2.78-.21-.27-.41-.48-.75-.57-.3-.08-.7-.05-.96.13-.51.33-.87,1.15-.45,1.71h0Z"/>
  <path class="st2" d="M140.26,121.23s.01-.05.02-.07l-.13.3s.02-.04.04-.06l-.2.25s.03-.04.05-.05l-.25.2s.06-.04.1-.06l-.3.13c.05-.02.1-.03.16-.04l-.33.04c.08-.01.17-.01.25,0l-.33-.04c.16.02.32.07.47.13l-.3-.13c.17.07.32.16.46.27l-.25-.2c.13.1.24.22.34.35l-.2-.25c.1.13.18.27.25.42l-.13-.3c.06.15.11.31.13.48l-.04-.33c.02.17.02.33,0,.5l.04-.33c-.03.18-.07.36-.15.53l.13-.3c-.07.15-.15.3-.25.43l.2-.25c-.09.12-.2.22-.32.32-.23.19-.37.6-.37.88,0,.31.14.67.37.88s.55.38.88.37c.35-.02.61-.15.88-.37,1.16-.94,1.44-2.82.62-4.07-.44-.66-1.06-1.15-1.82-1.38-.96-.29-2.17.02-2.45,1.1-.16.63.21,1.39.87,1.54s1.36-.2,1.54-.87h0Z"/>
  <path class="st2" d="M139.69,122.15c.03,2.82-.19,5.64-.67,8.43-.11.66.18,1.35.87,1.54.6.17,1.42-.2,1.54-.87.52-3,.78-6.04.76-9.09,0-.68-.57-1.25-1.25-1.25s-1.26.57-1.25,1.25h0Z"/>
  <path class="st2" d="M140.25,121.77c-.04,9.05-.19,18.1-.45,27.15-.05,1.61,2.45,1.61,2.5,0,.26-9.05.41-18.1.45-27.15,0-1.61-2.49-1.61-2.5,0h0Z"/>
  <path class="st2" d="M140.82,122.02l.04,30.65c0,1.61,2.5,1.61,2.5,0-.01-10.22-.03-20.43-.04-30.65,0-1.61-2.5-1.61-2.5,0h0Z"/>
  <path class="st2" d="M140.42,127.02c.37,9.84.75,19.69,1.12,29.53.06,1.6,2.56,1.61,2.5,0-.37-9.84-.75-19.69-1.12-29.53-.06-1.6-2.56-1.61-2.5,0h0Z"/>
  <path class="st2" d="M182.01,136.1c-2.74-.04-5.15,2.35-5.2,5.07-.01.65.58,1.28,1.25,1.25s1.24-.55,1.25-1.25c0-.13.01-.26.03-.39l-.04.33c.04-.33.13-.65.26-.95l-.13.3c.14-.32.32-.62.53-.9l-.2.25c.22-.28.46-.52.74-.74l-.25.2c.29-.23.61-.41.95-.56l-.3.13c.29-.12.59-.2.9-.25l-.33.04c.18-.02.37-.03.55-.03.65.01,1.28-.58,1.25-1.25s-.55-1.24-1.25-1.25h0Z"/>
</svg>